PathFileType	4	(X/Y/Z)	C:/Users/opensim2020/Desktop/walking_exp_matlab/subject06_walking17_straight_02.trc	
DataRate	CameraRate	NumFrames	NumMarkers	Units	OrigDataRate	OrigDataStartFrame	OrigNumFrames	
100.00	100.00	7	45	mm	100.00	2240	334	
Frame#	Time	LFHD			RFHD			LBHD			RBHD			C7			T10			CLAV			STRN			RBAK			LSHO			LUPA			LELB			LFRM			LWRA			LWRB			LFIN			RSHO			RUPA			RELB			RFRM			RWRA			RWRB			RFIN			LASI			RASI			LPSI			RPSI			LTHI			LKNE			LTIB			LANK			LHEE			LTOE			RTHI			RKNE			RTIB			RANK			RHEE			RTOE			*39			*40			*41			*42			*43			*44			
		X1	Y1	Z1	X2	Y2	Z2	X3	Y3	Z3	X4	Y4	Z4	X5	Y5	Z5	X6	Y6	Z6	X7	Y7	Z7	X8	Y8	Z8	X9	Y9	Z9	X10	Y10	Z10	X11	Y11	Z11	X12	Y12	Z12	X13	Y13	Z13	X14	Y14	Z14	X15	Y15	Z15	X16	Y16	Z16	X17	Y17	Z17	X18	Y18	Z18	X19	Y19	Z19	X20	Y20	Z20	X21	Y21	Z21	X22	Y22	Z22	X23	Y23	Z23	X24	Y24	Z24	X25	Y25	Z25	X26	Y26	Z26	X27	Y27	Z27	X28	Y28	Z28	X29	Y29	Z29	X30	Y30	Z30	X31	Y31	Z31	X32	Y32	Z32	X33	Y33	Z33	X34	Y34	Z34	X35	Y35	Z35	X36	Y36	Z36	X37	Y37	Z37	X38	Y38	Z38	X39	Y39	Z39	X40	Y40	Z40	X41	Y41	Z41	X42	Y42	Z42	X43	Y43	Z43	X44	Y44	Z44	X45	Y45	Z45	

84	0.830	1478.05383	672.26202	1678.63391	1347.73230	678.33936	1659.58240	1489.35632	803.03479	1618.46790	1361.33838	807.81500	1605.23450	1434.29175	801.29346	1462.58313	1417.22485	844.46826	1136.69128	1436.00928	691.90350	1383.63147	1441.92163	659.69830	1205.03394	1346.65833	873.20343	1296.14746	1595.84534	749.78192	1414.17261	1666.02966	757.28406	1210.55713	1677.55908	761.37610	1098.65295	1697.67151	728.19751	951.79504	1652.42346	661.92767	841.85175	1691.89746	720.96960	832.28394	1691.18457	671.94659	755.24646	1274.53577	727.99109	1418.51465	1181.53955	754.38397	1220.18604	1167.29163	739.40637	1099.55103	1151.01575	707.49493	983.72180	1186.85364	630.07806	855.04395	1143.12317	681.27307	849.15063	1143.20032	633.50214	779.45441	1534.68396	681.73932	969.21173	1314.25793	666.83453	973.04858	1499.41748	837.45856	1001.81824	1331.93079	820.48993	1008.61957	1589.12939	706.78235	658.39081	1564.15479	671.97424	500.07816	1568.32507	793.44824	280.66837	1537.66895	860.92426	119.92233	1489.06543	900.68890	112.73596	1549.84448	735.59576	51.67621	1267.91492	749.35547	640.55975	1292.82141	758.79895	515.09894	1310.88550	824.78656	257.03079	1366.12891	847.32965	73.54403	1413.40210	885.41211	51.24992	1364.12378	693.29071	36.96814	1422.66870	777.57776	1708.80920															 
85	0.840	1478.17798	666.01038	1678.03308	1347.84192	671.86011	1659.16479	1488.89758	796.65552	1618.10938	1361.14429	801.55640	1605.16077	1433.71753	795.61755	1462.30017	1416.53833	838.76514	1136.26208	1435.77295	686.39557	1383.27441	1441.54871	654.10284	1204.66760	1345.80286	867.46436	1295.89209	1595.51392	744.82336	1413.67883	1665.73315	753.40405	1210.07007	1677.26086	758.09674	1098.24207	1697.21814	726.17169	950.98651	1651.85779	661.38605	840.33667	1691.65198	720.28735	831.54694	1690.84619	672.14825	753.94312	1274.24255	722.02875	1418.22449	1181.01147	747.63007	1219.88550	1166.81580	732.02570	1099.31653	1150.89453	698.95380	983.80249	1187.45923	620.76685	855.79431	1143.17615	671.45990	849.61603	1143.35376	623.26398	780.32758	1534.05432	675.40692	969.35992	1313.60681	660.95386	972.71472	1499.08020	831.38629	1001.43018	1331.55151	814.72980	1008.06873	1589.34448	698.03284	659.02893	1564.01941	661.83618	500.99286	1568.18945	776.28699	277.47989	1537.55273	837.16058	114.11360	1488.81592	876.27826	105.31298	1550.83044	709.50720	50.93697	1268.11731	744.77002	640.24426	1292.88623	755.24432	514.79797	1311.20337	823.04218	257.19012	1366.15735	846.96417	73.89247	1413.44592	885.20538	51.64221	1364.02234	693.02441	36.93692	1422.69592	771.12848	1708.59021															 
86	0.850	1478.42834	659.71973	1677.37061	1347.99878	665.44733	1658.73206	1489.10461	790.84271	1617.94617	1361.09070	795.31226	1605.08313	1433.29419	789.95825	1462.00940	1415.88440	833.05432	1135.75903	1435.58496	680.87311	1382.86279	1441.15601	648.64673	1204.32764	1344.99304	861.72925	1295.59314	1595.20691	739.85309	1413.13757	1665.52124	749.48218	1209.57544	1677.03894	754.74396	1097.78796	1696.94751	724.16779	950.27954	1651.15784	660.85504	838.83057	1691.28369	719.51636	830.63446	1690.39954	672.29169	752.60864	1273.98071	716.07135	1417.94177	1180.65820	740.76685	1219.53540	1166.56433	724.52600	1099.02930	1150.92078	690.51678	983.87024	1188.20874	611.72589	856.20508	1143.33215	661.75476	850.11401	1143.68103	613.09680	781.25262	1533.47461	669.03766	969.46655	1313.54614	656.85443	972.06073	1498.75903	825.31952	1001.03833	1331.23425	808.90533	1007.50403	1589.63367	689.56708	659.60004	1564.26208	651.94965	501.99506	1568.15210	759.06152	274.38779	1537.40918	813.18073	108.61525	1488.17920	851.77576	98.43929	1551.92554	683.16974	50.35108	1268.28894	740.20276	639.90790	1292.98730	751.77252	514.54822	1311.56848	821.27155	257.31982	1366.41724	846.56683	74.14548	1413.61011	884.99658	52.08393	1364.32520	692.98273	36.75818	1422.75269	764.64087	1708.31335															 
87	0.860	1478.71533	653.49530	1676.65198	1348.27405	659.02057	1658.27612	1488.79150	784.46844	1617.49146	1361.04321	789.09180	1604.99097	1432.92627	784.35248	1461.63196	1415.26050	827.38397	1135.30530	1435.45996	675.36389	1382.40649	1440.86353	643.09949	1203.92639	1344.25842	856.00226	1295.30872	1594.96777	734.86084	1412.57141	1665.37268	745.54346	1209.08362	1676.86011	751.19336	1097.29590	1696.55713	722.01263	949.50848	1650.35547	660.28296	837.26239	1690.97058	718.68518	829.73492	1689.85559	672.42627	751.22552	1273.80603	710.13995	1417.65967	1180.26978	734.15002	1219.19592	1166.23071	717.25061	1098.79919	1150.98962	682.12573	983.92712	1189.06128	602.77844	856.83704	1143.59216	652.15643	850.60889	1144.13611	603.03925	782.16418	1532.84912	662.92767	969.46985	1312.41821	649.38092	971.93158	1498.49231	819.19904	1000.68225	1330.88513	803.10248	1006.94409	1590.03271	681.45490	660.06793	1564.40784	642.35870	502.78693	1568.09448	741.93842	271.55499	1537.31567	789.08533	103.51729	1488.07532	826.42072	91.60139	1553.19165	656.90045	50.23705	1268.10083	735.99561	639.46661	1293.24988	748.21436	514.31024	1312.09277	819.34033	257.41342	1366.70471	846.15253	74.45368	1413.84241	884.72736	52.51082	1364.03247	693.22491	36.98009	1422.94189	758.20667	1707.99280															 
88	0.870	1479.11450	647.18268	1675.88635	1348.58679	652.66058	1657.74121	1489.14270	778.72858	1617.26294	1361.03955	782.90430	1604.87366	1432.69983	778.78619	1461.23914	1414.71936	821.78638	1134.78223	1435.33362	669.85876	1381.86743	1440.57092	637.63654	1203.48816	1343.63123	850.31696	1295.00574	1594.76318	729.82330	1411.91724	1665.24084	741.47369	1208.47620	1676.63220	747.55542	1096.73059	1696.13208	719.68683	948.67676	1649.48120	659.67767	835.69409	1690.84216	717.88599	828.97620	1689.17224	672.46167	749.83832	1273.69824	704.27795	1417.31873	1180.21021	727.62860	1218.84863	1166.14539	709.83173	1098.56006	1151.09900	673.87677	983.98853	1190.06531	593.75513	857.49066	1143.90405	642.72491	851.09888	1144.82983	592.96277	783.05255	1532.26636	656.64386	969.48602	1312.68250	647.26855	970.89594	1498.17200	813.11487	1000.23627	1330.57654	797.21259	1006.37225	1590.50500	673.86176	660.39728	1564.90698	632.98236	503.47607	1568.18262	724.81952	268.74298	1537.09973	764.68323	98.76957	1487.24084	801.14099	85.42273	1554.58105	630.81818	50.47396	1268.19202	731.72144	639.22571	1293.49084	744.69574	514.07660	1312.57178	817.67920	257.62189	1367.08813	845.72491	74.84257	1414.20386	884.49036	53.02630	1363.97412	693.00604	36.90791	1423.26257	751.77521	1707.68152															 
89	0.880	1479.59729	640.98151	1675.06921	1349.07507	646.28973	1657.15491	1488.99805	772.45984	1616.71729	1361.21240	776.70502	1604.69897	1432.51453	773.26147	1460.71033	1414.23901	816.16144	1134.19885	1435.32910	664.35901	1381.31116	1440.30029	632.21979	1203.04883	1343.00610	844.62146	1294.62744	1594.62683	724.73969	1411.26050	1665.15503	737.29327	1207.87744	1676.42041	743.85156	1096.14160	1695.71448	717.25269	947.79895	1648.72205	658.50964	834.44513	1690.49756	716.80341	828.07092	1688.44580	672.44659	748.41931	1273.68494	698.45868	1417.00732	1179.85852	720.74475	1218.60779	1166.02466	702.52826	1098.36963	1151.33386	665.75604	984.03156	1191.12231	585.34644	858.01941	1144.28101	633.40735	851.53857	1145.39099	583.27789	783.92560	1531.72034	650.47327	969.39148	1312.23999	641.48993	970.39685	1497.87341	807.08344	999.71960	1330.25562	791.37329	1005.73792	1590.87183	666.38043	660.74988	1565.54919	623.82843	503.98993	1568.26953	707.57843	266.04340	1536.93567	740.41333	94.54411	1486.76733	775.56610	79.62698	1555.89258	604.98108	50.97881	1268.45459	727.21643	638.85565	1293.80457	741.14941	513.84711	1313.16956	815.85461	257.73376	1367.53198	845.26160	75.29186	1414.62817	884.18713	53.60129	1363.87793	692.85016	36.86895	1423.53613	745.34412	1707.26697															 
90	0.890	1480.11365	634.78998	1674.12915	1349.56738	639.92072	1656.47803	1489.24707	766.51904	1616.28857	1361.37122	770.53503	1604.47034	1432.40332	767.70239	1460.11523	1413.83289	810.59479	1133.58020	1435.34680	658.90216	1380.70166	1440.14014	626.62775	1202.53516	1342.52515	838.98798	1294.19019	1594.53931	719.60828	1410.50244	1665.11646	733.00751	1207.22351	1676.29309	740.12640	1095.54126	1694.83374	714.46179	946.63495	1647.56812	657.99438	832.79517	1690.17957	715.52893	827.14301	1687.62341	672.31268	746.99872	1273.71973	692.64905	1416.68835	1179.73279	714.09528	1218.30566	1165.96863	695.38422	1098.09387	1151.59290	657.75037	984.06097	1192.18726	576.84076	858.53973	1144.68494	624.23633	851.90369	1146.14832	573.78668	784.64508	1531.18970	644.30835	969.18414	1311.67212	635.24835	970.15973	1497.51929	801.02667	999.10437	1329.95886	785.49982	1005.09064	1591.11755	659.97058	660.64539	1566.42688	614.86273	504.42538	1568.43420	690.33850	263.39493	1536.80603	716.12848	90.78924	1486.34778	750.78912	75.30963	1557.08093	579.38226	51.67322	1268.69702	722.79529	638.40442	1294.14465	737.55408	513.58630	1313.78638	813.99487	257.96405	1368.05591	844.71002	75.77129	1415.19116	883.81970	54.27977	1364.10999	692.75085	36.73645	1423.99426	738.92133	1706.82703															 
